# xmcd
#
# Track frame offsets: 
#        150
#        24397
#        41742
#        62858
#        83065
#        103573
#        120748
#        140588
#        156880
#        171985
#        194273
#        212893
#
# Disc length: 3077 seconds
#
# Revision: 0
# Processed by: cddbd v1.5.1PL2 Copyright (c) Steve Scherf et al.
# Submitted via: ExactAudioCopy v0.95b1
#
DISCID=a90c030c
DTITLE=Fujita Emi - Rembrandt Sky
DYEAR=2005
DGENRE=Folk
TTITLE0=Somewhere
TTITLE1=Love Lets Go
TTITLE2=Every Single Day
TTITLE3=To Daydream With You
TTITLE4=Unbelievable
TTITLE5=Lucky Day
TTITLE6=More Than Ever Before
TTITLE7=Window Shopping
TTITLE8=Tokyo Lover
TTITLE9=200x
TTITLE10=My Summer Love
TTITLE11=Ten Million Tears
EXTD=
EXTT0=
EXTT1=
EXTT2=
EXTT3=
EXTT4=
EXTT5=
EXTT6=
EXTT7=
EXTT8=
EXTT9=
EXTT10=
EXTT11=
PLAYORDER=
